<!DOCTYPE svg PUBLIC "-//W3C//DTD SVG 1.1//EN" "http://www.w3.org/Graphics/SVG/1.1/DTD/svg11.dtd">
<!-- Uploaded to: SVG Repo, www.svgrepo.com, Transformed by: SVG Repo Mixer Tools -->
<svg height="201px" width="201px" version="1.1" id="Layer_1" xmlns="http://www.w3.org/2000/svg" xmlns:xlink="http://www.w3.org/1999/xlink" viewBox="-51.2 -51.2 614.40 614.40" xml:space="preserve" fill="#000000" stroke="#000000" stroke-width="0.00512">
<g id="SVGRepo_bgCarrier" stroke-width="0">
<rect x="-51.2" y="-51.2" width="614.40" height="614.40" rx="307.2" fill="#050506" strokewidth="0"/>
</g>
<g id="SVGRepo_tracerCarrier" stroke-linecap="round" stroke-linejoin="round"/>
<g id="SVGRepo_iconCarrier"> <circle style="fill:#369653;" cx="256" cy="256" r="256"/> <path style="fill:#16c052;" d="M326.868,184.646L256,113.778L155.569,356.592l148.97,150.793C422.709,484.702,512,380.787,512,256 c0-0.876-0.024-1.746-0.033-2.62L386.272,128.243L326.868,184.646z"/> <path style="fill:#31a03e;" d="M256,256V113.778c-78.546,0-142.222,63.674-142.222,142.222c0,78.546,63.676,142.222,142.222,142.222 c28.946,0,55.858-8.67,78.322-23.523L256,256z"/> <path style="fill:#6ad785;" d="M256,256V113.778c-78.546,0-142.222,63.674-142.222,142.222c0,78.546,63.676,142.222,142.222,142.222 V256z"/> <path style="fill:#10f94a;" d="M398.222,256H256l78.322,118.7C372.815,349.248,398.222,305.6,398.222,256z"/> <path style="fill:#0e6729;" d="M426.667,227.556c0-78.546-63.676-142.222-142.222-142.222v142.222H426.667z"/> </g>
</svg>